<svg width="156" height="156" viewBox="0 0 156 156" fill="none" xmlns="http://www.w3.org/2000/svg">
<path d="M47.8438 53.4219L29.2812 110H14.3281L39.6875 41.75H49.2031L47.8438 53.4219ZM63.2656 110L44.6562 53.4219L43.1562 41.75H52.7656L78.2656 110H63.2656ZM62.4219 84.5938V95.6094H26.375V84.5938H62.4219ZM111.172 85.6719H93.7812V74.7031H111.172C113.859 74.7031 116.047 74.2656 117.734 73.3906C119.422 72.4844 120.656 71.2344 121.438 69.6406C122.219 68.0469 122.609 66.25 122.609 64.25C122.609 62.2188 122.219 60.3281 121.438 58.5781C120.656 56.8281 119.422 55.4219 117.734 54.3594C116.047 53.2969 113.859 52.7656 111.172 52.7656H98.6562V110H84.5938V41.75H111.172C116.516 41.75 121.094 42.7188 124.906 44.6562C128.75 46.5625 131.688 49.2031 133.719 52.5781C135.75 55.9531 136.766 59.8125 136.766 64.1562C136.766 68.5625 135.75 72.375 133.719 75.5938C131.688 78.8125 128.75 81.2969 124.906 83.0469C121.094 84.7969 116.516 85.6719 111.172 85.6719Z" fill="#F1523F"/>
<circle cx="78" cy="78" r="75" stroke="#F1523F" stroke-width="5"/>
</svg>
